<?xml version="1.0" encoding="iso-8859-1"?>
<!-- Uploaded to: SVG Repo, www.svgrepo.com, Generator: SVG Repo Mixer Tools -->
<!DOCTYPE svg PUBLIC "-//W3C//DTD SVG 1.1//EN" "http://www.w3.org/Graphics/SVG/1.1/DTD/svg11.dtd">
<svg fill="#000000" version="1.1" id="Capa_1" xmlns="http://www.w3.org/2000/svg" xmlns:xlink="http://www.w3.org/1999/xlink" 
	 width="800px" height="800px" viewBox="0 0 193.664 193.663"
	 xml:space="preserve">
<g>
	<g>
		<path d="M93.582,67.668c-9.098,0-16.5-7.402-16.5-16.501c0-9.098,7.402-16.5,16.5-16.5s16.5,7.402,16.5,16.5
			C110.083,60.267,102.681,67.668,93.582,67.668z M93.582,41.667c-5.238,0-9.5,4.262-9.5,9.5c0,5.239,4.262,9.501,9.5,9.501
			c5.239,0,9.5-4.262,9.5-9.501C103.083,45.929,98.821,41.667,93.582,41.667z"/>
		<path d="M73.528,137.673c-1.888-0.411-2.865-2.549-2.283-4.393L88.77,77.784c-27.9-0.141-42.323-14.393-49.579-26.716
			c-7.982-13.558-9.017-27.319-9.099-28.629c-0.119-1.276-0.958-12.957,7.165-18.58c6.668-4.617,16.951-3.491,30.562,3.347
			c31.729,15.938,43.119,10.265,57.541,3.084C135.043,5.467,146.02,0,164.25,0c1.934,0,3.5,1.567,3.5,3.5s-1.566,3.5-3.5,3.5
			c-16.583,0-26.337,4.858-35.771,9.556c-14.885,7.413-28.944,14.416-63.802-3.095C53.684,7.94,45.581,6.61,41.241,9.614
			c-4.959,3.433-4.168,12.302-4.165,12.362c0.121,2.098,3.574,51.447,56.321,48.696c1.133-0.065,2.25,0.444,2.953,1.353
			c0.703,0.908,0.916,2.102,0.568,3.197l-19,60.167C77.449,136.882,75.415,138.085,73.528,137.673z"/>
		<path d="M39.288,192.811c-1.463-1.264-1.615-3.479-0.347-4.938c13.812-15.898,21.72-32.837,21.798-33.006
			c0.811-1.755,2.89-2.521,4.645-1.709c1.754,0.811,2.52,2.889,1.71,4.644c-0.335,0.728-8.375,17.979-22.869,34.661
			C43.533,193.26,41.27,194.521,39.288,192.811z"/>
		<path d="M82.207,151.271c-3.287,0-6.218-0.39-8.813-1.021c-12.203-2.966-18.902-11.825-21.102-19.127
			c-4.33-14.37,2.276-35.429,5.179-43.486c-10.322-4.596-23.105-13.639-31.237-31.344c-0.807-1.757-0.037-3.835,1.72-4.642
			c1.755-0.807,3.835-0.038,4.642,1.72c8.017,17.456,21.064,25.435,30.597,29.055c0.882,0.335,1.591,1.013,1.967,1.878
			c0.376,0.865,0.386,1.847,0.029,2.72c-0.109,0.266-10.814,26.749-6.195,42.079c1.642,5.447,6.72,12.076,16.053,14.346
			c10.914,2.656,35.279,0.845,75.854-41.051c1.347-1.39,3.562-1.424,4.949-0.08c1.389,1.347,1.424,3.562,0.08,4.949
			C122.101,142.199,98.054,151.271,82.207,151.271z"/>
	</g>
</g>
</svg>